<?xml version="1.0" standalone="no"?>
<!DOCTYPE svg PUBLIC "-//W3C//DTD SVG 20010904//EN"
 "http://www.w3.org/TR/2001/REC-SVG-20010904/DTD/svg10.dtd">
<svg version="1.0" xmlns="http://www.w3.org/2000/svg"
 width="700.000000pt" height="700.000000pt" viewBox="0 0 700.000000 700.000000"
 preserveAspectRatio="xMidYMid meet">
<metadata>
Created by potrace 1.14, written by Peter Selinger 2001-2017
</metadata>
<g transform="translate(0.000000,700.000000) scale(0.100000,-0.100000)"
fill="#000000" stroke="none">
<path d="M4817 6084 c-1 -1 -32 -4 -69 -7 -100 -8 -162 -39 -318 -160 -98 -76
-203 -171 -374 -337 -76 -74 -144 -140 -150 -146 -15 -14 -314 -329 -357 -375
-19 -20 -72 -79 -119 -130 -47 -51 -97 -106 -111 -121 -15 -16 -51 -56 -80
-90 -65 -74 -138 -156 -159 -178 -8 -8 -28 -31 -44 -50 -16 -19 -57 -66 -91
-105 -35 -38 -109 -124 -165 -190 -56 -66 -114 -134 -129 -150 -14 -17 -46
-55 -71 -85 -25 -30 -47 -57 -50 -60 -3 -3 -39 -45 -80 -95 -41 -49 -77 -92
-80 -95 -3 -3 -25 -30 -50 -60 -25 -30 -47 -57 -50 -60 -4 -3 -55 -66 -115
-140 -60 -74 -112 -137 -115 -140 -3 -3 -41 -50 -85 -105 -44 -55 -82 -102
-85 -105 -3 -3 -30 -36 -60 -75 -30 -38 -57 -72 -60 -75 -3 -3 -30 -36 -60
-75 -30 -38 -57 -72 -60 -75 -3 -3 -43 -54 -90 -115 -46 -60 -86 -112 -89
-115 -4 -3 -19 -23 -36 -45 -16 -22 -31 -42 -34 -45 -8 -7 -67 -85 -253 -331
-475 -630 -810 -1135 -881 -1329 -41 -110 -29 -134 66 -136 88 -1 271 28 472
77 44 11 89 21 100 23 70 14 810 222 827 232 4 3 16 7 25 9 45 9 674 208 938
297 538 182 653 221 950 327 301 106 534 191 755 274 412 155 758 290 1045
408 129 54 137 57 205 87 25 11 89 39 142 61 256 108 602 277 764 373 149 88
206 136 236 199 65 133 84 237 82 459 -3 419 -190 952 -515 1461 -48 75 -176
255 -203 286 -6 6 -24 29 -41 50 -316 400 -740 695 -1087 757 -78 14 -185 25
-191 20z m58 -279 c457 -119 1017 -617 1387 -1235 64 -107 130 -233 168 -320
18 -41 40 -93 50 -115 18 -41 85 -243 94 -286 25 -111 27 -124 44 -254 8 -64
8 -212 -1 -282 -9 -67 -38 -174 -63 -230 l-23 -53 -88 31 c-109 39 -155 60
-262 121 -46 26 -86 48 -88 48 -2 0 -9 5 -16 11 -7 5 -49 36 -94 68 -187 132
-389 324 -590 557 -10 12 -36 45 -58 73 -22 29 -52 67 -66 84 -45 54 -174 247
-239 357 -195 327 -346 717 -375 970 -3 30 -9 69 -11 85 -7 36 -7 242 -1 270
3 11 8 44 12 74 l7 54 77 -6 c42 -4 103 -13 136 -22z"/>
<path d="M5254 5137 c-14 -17 -30 -42 -35 -56 -11 -28 -10 -132 1 -171 4 -14
14 -45 21 -70 56 -194 245 -500 428 -693 230 -241 406 -277 434 -88 5 35 -19
142 -49 218 -123 308 -483 760 -687 865 -61 31 -84 30 -113 -5z"/>
</g>
</svg>
